<svg width="32" height="32" viewBox="0 0 32 32" xmlns="http://www.w3.org/2000/svg">
  <defs>
    <linearGradient id="deviceGradient" x1="0%" y1="0%" x2="0%" y2="100%">
      <stop offset="0%" style="stop-color:#00d4ff;stop-opacity:1" />
      <stop offset="100%" style="stop-color:#8b5cf6;stop-opacity:1" />
    </linearGradient>
    <linearGradient id="carGradient" x1="0%" y1="0%" x2="0%" y2="100%">
      <stop offset="0%" style="stop-color:#60a5fa;stop-opacity:1" />
      <stop offset="100%" style="stop-color:#a855f7;stop-opacity:1" />
    </linearGradient>
    <filter id="glow">
      <feGaussianBlur stdDeviation="1" result="coloredBlur"/>
      <feMerge> 
        <feMergeNode in="coloredBlur"/>
        <feMergeNode in="SourceGraphic"/>
      </feMerge>
    </filter>
  </defs>
  
  <!-- Device body -->
  <rect x="4" y="2" width="24" height="28" rx="6" ry="6" fill="url(#deviceGradient)" filter="url(#glow)" />
  
  <!-- Screen -->
  <rect x="8" y="6" width="16" height="10" rx="3" ry="3" fill="#1a1a2e" />
  
  <!-- Car silhouette -->
  <g transform="translate(12, 8) scale(0.8)">
    <!-- Car body -->
    <path d="M2 6 L2 4 L4 3 L6 3 L8 4 L8 6 L6 7 L4 7 Z" fill="url(#carGradient)" filter="url(#glow)" />
    <!-- Car wheels -->
    <circle cx="3.5" cy="6" r="0.8" fill="#ffffff" opacity="0.9" />
    <circle cx="6.5" cy="6" r="0.8" fill="#ffffff" opacity="0.9" />
    <!-- Car window -->
    <rect x="3" y="4" width="4" height="1.5" rx="0.3" fill="#ffffff" opacity="0.7" />
  </g>
  
  <!-- Keypad buttons -->
  <circle cx="10" cy="20" r="1.5" fill="url(#deviceGradient)" filter="url(#glow)" />
  <circle cx="14" cy="20" r="1.5" fill="url(#deviceGradient)" filter="url(#glow)" />
  <circle cx="18" cy="20" r="1.5" fill="url(#deviceGradient)" filter="url(#glow)" />
  <circle cx="10" cy="24" r="1.5" fill="url(#deviceGradient)" filter="url(#glow)" />
  <circle cx="14" cy="24" r="1.5" fill="url(#deviceGradient)" filter="url(#glow)" />
  <circle cx="18" cy="24" r="1.5" fill="url(#deviceGradient)" filter="url(#glow)" />
  
  <!-- Side button -->
  <rect x="22" y="20" width="2" height="8" rx="1" ry="1" fill="url(#deviceGradient)" filter="url(#glow)" />
</svg>
