<?xml version="1.0" encoding="UTF-8"?>
<svg version="1.1" xmlns="http://www.w3.org/2000/svg" width="1024" height="1024">
<path d="M0 0 C337.92 0 675.84 0 1024 0 C1024 337.92 1024 675.84 1024 1024 C686.08 1024 348.16 1024 0 1024 C0 686.08 0 348.16 0 0 Z " fill="#0D142B" transform="translate(0,0)"/>
<path d="M0 0 C2.4519313 -0.004352 4.90386124 -0.00953678 7.35578918 -0.01548767 C13.30253041 -0.02745246 19.24922971 -0.03003552 25.19597839 -0.02768741 C30.03396367 -0.02589778 34.87193532 -0.02766763 39.70991898 -0.03191185 C40.74634048 -0.03280463 40.74634048 -0.03280463 41.8036998 -0.03371545 C43.20776815 -0.03492732 44.61183651 -0.03614145 46.01590486 -0.03735783 C59.15622312 -0.04821136 72.29651567 -0.0460812 85.43683536 -0.03997298 C97.43175335 -0.03480513 109.4265901 -0.0460597 121.42149203 -0.0650712 C133.76846269 -0.08448917 146.11539499 -0.09269872 158.46238101 -0.08894795 C165.38202568 -0.08704198 172.30160123 -0.08946423 179.22123337 -0.10366249 C185.73022846 -0.11688422 192.23910199 -0.11426274 198.74809837 -0.1012516 C201.12881336 -0.09889414 203.50953988 -0.10159054 205.89024162 -0.10987473 C226.44453756 -0.17620855 244.80456198 1.47280689 261.81884766 14.2746582 C262.43373047 14.72454102 263.04861328 15.17442383 263.68212891 15.63793945 C274.50618069 24.15798021 281.22004029 37.96472827 283.81884766 51.2746582 C284.22015492 56.01309701 284.22028474 60.72257747 284.19306946 65.47584534 C284.19581513 66.88477199 284.19987155 68.29369658 284.20511311 69.70261616 C284.21563446 73.54647553 284.20761388 77.39010013 284.19636261 81.23394907 C284.18748084 85.39009661 284.19597553 89.54621475 284.20222473 93.70236206 C284.21169143 101.83301505 284.2051317 109.963579 284.19296179 118.09422535 C284.17931024 127.56925585 284.18098242 137.04426537 284.18309512 146.5193032 C284.18628186 163.42825161 284.1746351 180.33715784 284.1550293 197.24609375 C284.1360235 213.64194015 284.12894294 230.03773712 284.13452148 246.43359375 C284.14058333 264.30270675 284.14039499 282.17179803 284.12903565 300.04090923 C284.1278284 301.94732122 284.12662242 303.8537332 284.12541771 305.76014519 C284.1245124 307.16700961 284.1245124 307.16700961 284.1235888 308.60229554 C284.11971451 315.20212147 284.12010137 321.8019393 284.12200356 328.40176582 C284.12412866 336.44725848 284.11887745 344.49270791 284.10439 352.53818841 C284.09716135 356.6406877 284.09305593 360.74312415 284.09763336 364.84562874 C284.10172605 368.60520534 284.0964983 372.36465249 284.08400729 376.12420952 C284.07971809 378.11950177 284.08515177 380.11480773 284.09099656 382.11009604 C284.01565784 397.62383801 280.23475258 410.76046066 270.81884766 423.2746582 C270.36896484 423.88954102 269.91908203 424.50442383 269.45556641 425.13793945 C260.11298953 437.00695965 244.47451307 443.99395621 229.81884766 446.2746582 C221.49688296 446.99458822 213.11942758 446.80218844 204.7746582 446.76049805 C202.26653343 446.76264728 199.75840964 446.76652997 197.25028992 446.77200317 C191.17886926 446.78064825 185.10773851 446.77089481 179.0363616 446.75230257 C171.95323601 446.7314014 164.87015638 446.73167841 157.78700576 446.73264773 C145.14514847 446.73364594 132.50339288 446.71540534 119.86157227 446.6862793 C107.61578521 446.65808065 95.37008755 446.6439393 83.12426758 446.64526367 C81.9916536 446.64538354 81.9916536 446.64538354 80.83615854 446.64550583 C80.08233956 446.64558654 79.32852058 446.64566725 78.5518586 446.6457504 C64.57306545 446.64713222 50.59430997 446.63534174 36.61552906 446.61744397 C31.68629332 446.61142954 26.75706455 446.60928706 21.82782555 446.60837936 C15.18994562 446.60686772 8.55214697 446.59412647 1.91429329 446.57404709 C-0.51808729 446.56821872 -2.95047862 446.56574196 -5.38286591 446.56690216 C-8.70894034 446.5678881 -12.03475583 446.55652822 -15.36079407 446.54208374 C-16.7958779 446.54672955 -16.7958779 446.54672955 -18.25995332 446.55146921 C-35.12132688 446.43097268 -51.90048894 440.02137972 -64.18115234 428.2746582 C-78.54213889 412.78848096 -82.66769248 395.40779556 -82.5688324 374.85388184 C-82.57301849 373.46981391 -82.57850292 372.08574943 -82.58515221 370.70169115 C-82.59945812 366.9449432 -82.59540937 363.18841738 -82.5879854 359.43165803 C-82.58321885 355.36204681 -82.595794 351.29248128 -82.60600281 347.22288513 C-82.62312729 339.26891489 -82.62404423 331.31502387 -82.6187899 323.36104 C-82.61473575 316.89222024 -82.61620649 310.42342376 -82.62153816 303.9546051 C-82.62228658 303.03122228 -82.62303501 302.10783946 -82.62380611 301.15647534 C-82.6253377 299.28018931 -82.62687605 297.40390329 -82.62842108 295.52761728 C-82.64212266 277.96549639 -82.63672451 260.40342016 -82.62523586 242.84130031 C-82.61530185 226.79919112 -82.62825123 210.75719724 -82.65217005 194.71510583 C-82.67659132 178.21071543 -82.68616174 161.70637867 -82.67951733 145.20197058 C-82.67603236 135.94886768 -82.67820954 126.69585345 -82.69576836 117.44276428 C-82.71052809 109.56765847 -82.71107646 101.69270382 -82.69369745 93.81760085 C-82.68521678 89.80551573 -82.68296553 85.79370023 -82.698349 81.78162956 C-82.71229405 78.09892613 -82.707309 74.41672078 -82.68810976 70.73404545 C-82.6826312 68.7923357 -82.69653869 66.85059995 -82.71146387 64.90893984 C-82.56286844 46.92853588 -76.49353055 30.83967532 -63.90771484 17.77856445 C-45.17313126 0.57388239 -23.95644024 -0.02810796 0 0 Z " fill="#99B8FD" transform="translate(411.18115234375,293.725341796875)"/>
<path d="M0 0 C1.01895898 -0.0060911 2.03791796 -0.01218221 3.08775449 -0.01845789 C6.50077543 -0.03510145 9.91342385 -0.03030998 13.32647705 -0.0255127 C15.7741637 -0.03285231 18.22184688 -0.04143822 20.66952515 -0.05117798 C26.62780875 -0.07110639 32.58594603 -0.07677378 38.54424998 -0.07499009 C43.38957109 -0.07368133 48.2348619 -0.07749242 53.08017731 -0.08491516 C54.47707279 -0.08701442 55.87396828 -0.08911202 57.27086377 -0.09120798 C57.96619943 -0.09225151 58.66153508 -0.09329504 59.37794152 -0.09437019 C72.52431954 -0.11326631 85.67064174 -0.11222459 98.81702772 -0.10540086 C110.83125107 -0.09982858 122.84526097 -0.12063837 134.85943446 -0.15376133 C147.20620655 -0.18753598 159.55287651 -0.20266179 171.89969563 -0.1980443 C178.82717855 -0.19580306 185.7544643 -0.20099163 192.68190765 -0.22593689 C199.19909003 -0.24920549 205.71590345 -0.2463214 212.23311996 -0.22600937 C214.62196319 -0.22260002 217.01083632 -0.22768504 219.39963913 -0.24199295 C222.66749464 -0.26021166 225.93384917 -0.24741508 229.20166016 -0.22705078 C230.1411761 -0.23956863 231.08069204 -0.25208648 232.04867816 -0.26498365 C239.37209899 -0.16752064 245.91026542 1.88650219 251.47700191 6.83704996 C252.79229736 8.33190918 252.79229736 8.33190918 254.85479736 11.39440918 C255.38400284 12.17486603 255.91320831 12.95532288 256.45845032 13.75942993 C258.59333163 19.31696613 258.28000579 24.71272014 258.2588501 30.61657715 C258.26455759 31.96407638 258.27152332 33.31157079 258.27964783 34.65905762 C258.29755454 38.30795346 258.2964154 41.95660849 258.29070544 45.60553503 C258.28760939 48.65708262 258.29371079 51.70858424 258.29974419 54.76012528 C258.31378017 61.96264051 258.31223641 69.16503712 258.30084229 76.36755371 C258.28936692 83.7850864 258.30342883 91.20225727 258.33023876 98.61974227 C258.35243039 104.99957914 258.35902522 111.37930272 258.35316235 117.75917542 C258.34979921 121.56451274 258.3521645 125.36961827 258.36941338 129.17492294 C258.38493553 132.75543635 258.38086945 136.33541609 258.36210823 139.91590881 C258.35669375 141.84662722 258.3708971 143.77736988 258.38580322 145.70803833 C258.3172803 153.81500543 257.38373968 159.36734578 251.88995361 165.63659668 C251.23897705 166.1754248 250.58800049 166.71425293 249.91729736 167.26940918 C249.26889893 167.82370605 248.62050049 168.37800293 247.95245361 168.94909668 C242.39924579 172.77532926 237.30637369 172.68297024 230.77842712 172.66183472 C229.75482788 172.66636583 228.73122864 172.67089694 227.67661124 172.67556536 C224.24206442 172.68823925 220.80767556 172.68658704 217.37310791 172.68493652 C214.91247351 172.6909199 212.45184098 172.69772501 209.99121094 172.70529175 C203.99806093 172.72114071 198.00497317 172.72740099 192.011808 172.7285165 C187.13927818 172.72946734 182.26676133 172.73357938 177.39423561 172.73991776 C163.57457545 172.75752857 149.75494633 172.76675692 135.93527486 172.76525681 C134.81806423 172.76513694 134.81806423 172.76513694 133.67828369 172.76501465 C132.93256537 172.76493289 132.18684706 172.76485113 131.41853122 172.76476689 C119.33502882 172.76395411 107.25165111 172.78309011 95.16818478 172.81129138 C82.75592276 172.84003103 70.34372153 172.85383107 57.93142539 172.85210383 C50.96489274 172.85144028 43.9984908 172.85691693 37.03198814 172.87845993 C30.47957732 172.89859278 23.92739524 172.89798696 17.37495422 172.88342667 C14.97075816 172.88133377 12.56654494 172.88606797 10.16237831 172.89814758 C6.87863326 172.91357725 3.59584294 172.90430597 0.31211853 172.8888855 C-0.63779616 172.89917262 -1.58771085 172.90945975 -2.56641084 172.92005861 C-10.04427458 172.84253369 -15.17353562 170.89331099 -20.89520264 166.08190918 C-25.89093098 160.11478922 -28.25410459 154.71701961 -28.29910278 146.93148804 C-28.30770325 145.82135849 -28.31630371 144.71122894 -28.32516479 143.56745911 C-28.32942474 142.35390244 -28.33368469 141.14034576 -28.33807373 139.89001465 C-28.34625122 138.60826859 -28.35442871 137.32652252 -28.362854 136.00593567 C-28.38901782 131.75784391 -28.40437836 127.50974259 -28.41864014 123.26159668 C-28.42400258 121.79575724 -28.4293801 120.32991785 -28.43477249 118.86407852 C-28.45639505 112.76301615 -28.4751287 106.66195637 -28.48639488 100.5608654 C-28.50261489 91.83626366 -28.53575188 83.11210857 -28.59279573 74.38767517 C-28.63159206 68.24311547 -28.65103911 62.09867473 -28.65631545 55.95399582 C-28.65995639 52.28929592 -28.67184167 48.625073 -28.70441818 44.96050644 C-28.74030304 40.86512794 -28.73610351 36.77070011 -28.72869873 32.6751709 C-28.74510406 31.47375961 -28.7615094 30.27234833 -28.77841187 29.03453064 C-28.71689531 20.69981957 -27.19677963 13.73242148 -21.36037254 7.48339653 C-14.77702276 1.40269032 -8.74221532 -0.04911005 0 0 Z " fill="#1B2D66" transform="translate(397.14520263671875,333.6055908203125)"/>
<path d="M0 0 C1.24238937 -0.00619858 2.48477875 -0.01239716 3.76481628 -0.01878357 C6.38104473 -0.02585526 8.99731843 -0.02275444 11.61352539 -0.01000977 C15.58370197 0.00383037 19.55150711 -0.03023146 23.52148438 -0.06835938 C26.07682349 -0.06931099 28.63216551 -0.06744946 31.1875 -0.0625 C32.35771194 -0.07575821 33.52792389 -0.08901642 34.7335968 -0.10267639 C46.34956738 0.02639398 56.57423147 3.52027655 65.453125 11.1328125 C69.04546291 14.86908381 71.86407895 19.03471458 74.67578125 23.36328125 C77.10866022 27.04402065 79.78656707 30.44747087 82.578125 33.859375 C83.79296875 35.56640625 83.79296875 35.56640625 83.79296875 37.56640625 C84.65341797 37.96085937 84.65341797 37.96085937 85.53125 38.36328125 C87.93024774 39.63943203 89.86894236 41.10872371 91.98046875 42.81640625 C95.0967314 45.2950178 98.24759938 47.55256536 101.60546875 49.69140625 C106.74769467 53.06879157 109.91226485 56.63495549 111.79296875 62.56640625 C113.48341521 71.01863855 115.14958779 82.76893246 110.60546875 90.50390625 C108.32816776 93.3473519 106.45424716 94.88523817 102.79296875 95.56640625 C100.10190955 95.6969427 97.4916889 95.65788829 94.79296875 95.56640625 C94.56609375 94.26703125 94.33921875 92.96765625 94.10546875 91.62890625 C92.20908134 83.25319518 88.1548509 76.22046968 80.79296875 71.56640625 C75.5266523 68.88186933 71.30438043 68.01345899 65.41796875 68.06640625 C64.66918457 68.07285156 63.92040039 68.07929688 63.14892578 68.0859375 C54.66853333 68.36609826 49.68697641 71.31481547 43.91796875 77.44140625 C39.29887253 83.14043006 37.74662252 88.2752897 36.79296875 95.56640625 C29.37836933 95.58953508 21.96377764 95.6073241 14.54914951 95.61821842 C11.10656527 95.62344607 7.66400563 95.63054156 4.22143555 95.6418457 C0.26741832 95.6547486 -3.68658881 95.65963543 -7.640625 95.6640625 C-9.5030912 95.67180443 -9.5030912 95.67180443 -11.40318298 95.67970276 C-13.11484398 95.67981606 -13.11484398 95.67981606 -14.86108398 95.67993164 C-15.87146225 95.68215225 -16.88184052 95.68437286 -17.9228363 95.68666077 C-20.20703125 95.56640625 -20.20703125 95.56640625 -21.20703125 94.56640625 C-21.4528448 92.88125068 -21.67844067 91.19313047 -21.89453125 89.50390625 C-23.28249523 81.68267856 -27.05573873 77.09790896 -33.14453125 72.19140625 C-40.22798243 67.28234781 -47.78800926 66.6882814 -56.20703125 67.56640625 C-63.37082726 69.51513592 -69.66182295 73.63649913 -73.71484375 79.89453125 C-76.52724256 85.13362845 -77.87787129 89.64152704 -78.20703125 95.56640625 C-84.30201988 95.98675029 -87.33591078 95.64455362 -92.20703125 91.56640625 C-97.38765833 85.67120992 -96.52299382 79.01287548 -96.20703125 71.56640625 C-95.43746266 62.98760886 -92.36396174 54.03260509 -86.421875 47.6484375 C-78.09180875 40.99464741 -67.54764665 37.83193524 -57.48876953 34.796875 C-50.12237365 32.48735833 -46.24851187 28.97591992 -41.70703125 22.69140625 C-40.91609714 21.61794944 -40.12443874 20.54502589 -39.33203125 19.47265625 C-38.16127352 17.87147289 -36.99241664 16.26887237 -35.83203125 14.66015625 C-27.08682519 3.24280389 -13.62948449 -0.05746948 0 0 Z " fill="#A7CEFD" transform="translate(502.20703125,370.43359375)"/>
<path d="M0 0 C5.74999369 4.00572753 9.84023058 8.75394417 13 15 C13.51719101 15.99396538 13.51719101 15.99396538 14.04483032 17.00801086 C15.41568377 21.30209466 15.29489815 25.38197286 15.29052734 29.86401367 C15.29724457 30.85329865 15.30396179 31.84258362 15.31088257 32.86184692 C15.32987069 36.13060541 15.33378758 39.39915855 15.3359375 42.66796875 C15.34236618 44.94615259 15.3490946 47.22433559 15.35610962 49.5025177 C15.36808538 54.27977409 15.37179026 59.05695817 15.37060547 63.83422852 C15.37040257 69.93939482 15.39767358 76.0440941 15.43214989 82.14914989 C15.45445178 86.85651251 15.45844195 91.56376346 15.45738602 96.27117348 C15.45973821 98.52091388 15.46854008 100.77065753 15.48405075 103.02034569 C15.5037713 106.17689481 15.49784781 109.33244654 15.48583984 112.48901367 C15.49707886 113.40833176 15.50831787 114.32764984 15.51989746 115.27482605 C15.42601832 125.04637146 12.04298139 132.93051692 5.35546875 140.01953125 C-1.6044613 145.87141274 -10.25931498 148.42356934 -19.22265625 148.265625 C-30.05682769 147.22944545 -37.50490602 141.37371334 -44.44140625 133.328125 C-49.14123389 126.87670109 -49.30348023 119.67660172 -49.32226562 112.0324707 C-49.33219543 111.05585983 -49.34212524 110.07924896 -49.35235596 109.07304382 C-49.38145179 105.85726043 -49.39517879 102.64167439 -49.40625 99.42578125 C-49.41190475 98.3218572 -49.41755951 97.21793316 -49.42338562 96.08055687 C-49.45331278 90.23769557 -49.47180688 84.39493229 -49.48046875 78.55200195 C-49.49142487 72.54104911 -49.53946705 66.53100537 -49.59641266 60.5203371 C-49.6338133 55.87637276 -49.64408443 51.23262413 -49.6471405 46.58852196 C-49.65316221 44.37389346 -49.66911264 42.15926733 -49.69551086 39.94478798 C-49.96302895 15.7769648 -49.96302895 15.7769648 -40.82019043 5.56538391 C-29.9349614 -5.29457205 -13.45987568 -7.93547453 0 0 Z " fill="#1D2968" transform="translate(631,551)"/>
<path d="M0 0 C8.23477446 4.95738931 12.37260232 11.38692313 16.375 19.9375 C18.37959569 29.76001889 16.74379544 37.61620291 11.71484375 46.19140625 C7.21374039 52.79887553 0.63717971 57.58883326 -7 60 C-16.96618411 60.95925784 -25.5202608 60.90339993 -34 55 C-34.928125 54.38125 -35.85625 53.7625 -36.8125 53.125 C-44.16595236 45.98164628 -47.2825207 38.34298123 -47.5 28.125 C-47.48042221 21.05334028 -46.0289455 15.82082457 -42 10 C-41.61585938 9.41863281 -41.23171875 8.83726562 -40.8359375 8.23828125 C-31.79976809 -3.96362098 -13.13523627 -6.8873898 0 0 Z " fill="#203A74" transform="translate(427,550)"/>
<path d="M0 0 C8.38465338 5.96171172 13.32562305 12.64147911 15.8046875 22.7109375 C17.10541618 31.35149232 14.86970994 39.32876693 9.88671875 46.453125 C3.27159429 54.34444162 -4.19696649 58.87834517 -14.484375 59.94921875 C-23.51922868 60.23627932 -31.04247726 57.84340119 -38.0703125 52.0859375 C-43.62345097 46.78159555 -47.8255727 39.42663527 -48.43359375 31.671875 C-48.59183697 24.02622868 -48.2546555 18.26931353 -44.1953125 11.7109375 C-43.7828125 11.01355469 -43.3703125 10.31617188 -42.9453125 9.59765625 C-33.53747672 -4.59427785 -14.55940633 -8.5491176 0 0 Z " fill="#203772" transform="translate(428.1953125,639.2890625)"/>
<path d="M0 0 C8.93971005 4.68748842 14.87779223 11.46931419 18.0859375 21.09375 C19.02155037 31.9776516 18.74269663 40.90514658 12.0859375 50.09375 C6.33021874 56.8579494 -0.75699888 60.55931071 -9.5703125 61.47265625 C-20.80996582 61.8210855 -27.93320002 59.60251395 -36.125 51.94921875 C-43.62717684 44.16857683 -45.5277082 36.5280475 -45.35546875 25.734375 C-44.34365332 17.38913626 -39.95504531 10.117201 -33.78125 4.4921875 C-24.17704447 -2.70092041 -11.24368894 -4.51419482 0 0 Z " fill="#203474" transform="translate(525.9140625,548.90625)"/>
<path d="M0 0 C0.76376953 -0.00708984 1.52753906 -0.01417969 2.31445312 -0.02148438 C10.69811439 0.0717471 17.72101536 3.30227523 23.76171875 9.2265625 C30.06635275 16.07310425 32.51567878 22.02685878 32.4375 31.25 C32.43105469 32.04390137 32.42460938 32.83780273 32.41796875 33.65576172 C32.14087217 42.56842747 29.15800943 48.26882166 23.1875 54.8125 C16.00528811 61.34659332 9.92796327 62.78337556 0.375 62.9375 C-0.42848877 62.95619141 -1.23197754 62.97488281 -2.05981445 62.99414062 C-10.68572323 62.90217809 -16.95057321 59.23107205 -23.234375 53.50390625 C-29.99762434 45.85912227 -31.55737628 37.0640117 -31.46484375 27.18359375 C-30.52257673 18.41044746 -26.0832891 11.5067273 -19.3828125 5.9375 C-12.84791815 1.71292183 -7.84029135 -0.20614846 0 0 Z " fill="#213273" transform="translate(512.0625,635.5625)"/>
<path d="M0 0 C1.25374924 -0.00619858 2.50749847 -0.01239716 3.79924011 -0.01878357 C6.44656466 -0.02587389 9.09236267 -0.0246812 11.73950195 -0.01000977 C14.43694863 0.00372825 17.1329804 -0.00314791 19.83032227 -0.03051758 C23.74147853 -0.06755731 27.65120099 -0.07000735 31.5625 -0.0625 C32.75760696 -0.07575821 33.95271393 -0.08901642 35.18403625 -0.10267639 C43.33066282 -0.01294384 50.38505925 1.35603969 56.57247925 7.02502441 C57.890625 8.5390625 57.890625 8.5390625 60.04296875 11.62890625 C60.77644531 12.65113281 61.50992188 13.67335938 62.265625 14.7265625 C63.98046875 17.56640625 63.98046875 17.56640625 64.98046875 21.56640625 C32.97046875 21.56640625 0.96046875 21.56640625 -32.01953125 21.56640625 C-29.47811981 17.11893623 -27.29289945 13.33208568 -24.20703125 9.37890625 C-23.58183594 8.56035156 -22.95664062 7.74179687 -22.3125 6.8984375 C-15.53686678 0.00737611 -9.27395898 -0.03829371 0 0 Z " fill="#1B2D67" transform="translate(501.01953125,388.43359375)"/>
<path d="M0 0 C3.81854877 2.66808857 6.34230662 5.81988862 7.828125 10.27734375 C8.61185988 16.79133692 7.61664852 21.87564248 3.828125 27.27734375 C-1.62713268 32.4664913 -6.57193975 32.7444001 -13.86328125 32.6875 C-18.91151845 32.06168547 -21.82128865 30.00594497 -25.171875 26.27734375 C-28.78090412 21.31492871 -28.86809776 16.20490693 -28.171875 10.27734375 C-26.14769095 4.31724627 -22.2401077 0.97294603 -16.796875 -2.03515625 C-10.45093688 -3.69718766 -5.66469431 -3.13342343 0 0 Z " fill="#A6C2FC" transform="translate(578.171875,450.72265625)"/>
<path d="M0 0 C4.36775158 3.14884416 7.96773395 6.77820184 9.6875 11.9375 C10.16660209 19.12403132 9.11202005 24.06635784 4.3125 29.75 C-0.69639852 33.9240821 -5.31460788 34.38628023 -11.66015625 34.25 C-16.87743074 33.63529903 -19.80668702 30.64452834 -23.125 26.875 C-26.46852394 22.385125 -26.8463374 18.39674281 -26.3125 12.9375 C-24.51343677 6.79951957 -21.36705611 3.56703668 -16.3125 -0.0625 C-11.53581234 -2.45084383 -4.92259935 -1.57894696 0 0 Z " fill="#A3D1FC" transform="translate(461.3125,449.0625)"/>
<path d="M0 0 C0.495 0.99 0.495 0.99 1 2 C0.46375 2.103125 -0.0725 2.20625 -0.625 2.3125 C-3.12364481 2.95819628 -3.12364481 2.95819628 -5.75 4.375 C-8.19915524 5.59957762 -10.4373662 6.54253438 -13 7.4375 C-22.37519361 10.88870979 -29.68106837 17.70872423 -35 26 C-35.33 26.99 -35.66 27.98 -36 29 C-36.48339844 29.46792969 -36.96679688 29.93585938 -37.46484375 30.41796875 C-39.29582081 32.30485351 -39.80571783 33.80863214 -40.5625 36.3125 C-40.80742187 37.10785156 -41.05234375 37.90320313 -41.3046875 38.72265625 C-41.53414063 39.47417969 -41.76359375 40.22570312 -42 41 C-42.391875 42.0725 -42.78375 43.145 -43.1875 44.25 C-44.00496552 47.01680636 -44.15481619 49.13590041 -44 52 C-44 54.51550772 -44.08628989 56.98937151 -44.21875 59.5 C-44.82503893 71.30429442 -45.32928329 82.88584845 -44.4375 94.6875 C-44.04046914 100.03925848 -44.20305549 104.72024264 -45 110 C-44.8364502 110.64855957 -44.67290039 111.29711914 -44.50439453 111.96533203 C-43.79986364 114.80732643 -44.36816235 117.38388862 -44.73339844 120.25292969 C-45.27754796 125.85986235 -45.14271682 131.49695599 -45.125 137.125 C-45.12886719 138.36121094 -45.13273437 139.59742188 -45.13671875 140.87109375 C-45.13542969 142.07121094 -45.13414062 143.27132812 -45.1328125 144.5078125 C-45.13168457 145.58691895 -45.13055664 146.66602539 -45.12939453 147.77783203 C-45.05376888 151.04866712 -45.05376888 151.04866712 -44.5 154.45019531 C-43.98440589 158.11071211 -43.87057527 161.59397724 -43.8671875 165.2890625 C-43.86623077 165.95537689 -43.86527405 166.62169128 -43.86428833 167.30819702 C-43.86361291 168.70481461 -43.86542225 170.10143546 -43.86962891 171.49804688 C-43.87500347 173.62637397 -43.86965347 175.75449171 -43.86328125 177.8828125 C-43.86394181 179.24739629 -43.86522252 180.61197996 -43.8671875 181.9765625 C-43.86831543 183.20455566 -43.86944336 184.43254883 -43.87060547 185.69775391 C-44 189 -44 189 -44.49819851 191.20612621 C-45.1456515 194.81094199 -45.1534218 198.3548524 -45.15821838 202.00422668 C-45.16315636 202.80479152 -45.16809434 203.60535635 -45.17318195 204.43018073 C-45.18852516 207.10945763 -45.19690896 209.78871062 -45.20532227 212.46801758 C-45.21490329 214.38991506 -45.2249135 216.31181043 -45.23532104 218.23370361 C-45.26235188 223.45016989 -45.28337133 228.6666452 -45.30332303 233.88314271 C-45.32519379 239.335091 -45.35257715 244.78701151 -45.37937927 250.23893738 C-45.4292914 260.56251013 -45.47423574 270.88609832 -45.51740164 281.20970124 C-45.56678664 292.9629372 -45.6217001 304.71614528 -45.67708123 316.46935427 C-45.79087856 340.64621017 -45.89772252 364.82309282 -46 389 C-48.26699409 385.59950886 -48.25169584 384.42983897 -48.25726891 380.44093704 C-48.2637178 379.27727686 -48.27016669 378.11361668 -48.276811 376.91469407 C-48.2737138 375.63019671 -48.2706166 374.34569935 -48.26742554 373.02227783 C-48.27116026 371.64856839 -48.27576106 370.27486107 -48.28115618 368.90115714 C-48.29342524 365.11734293 -48.2931211 361.33361687 -48.29076743 357.54978728 C-48.29036021 353.47179146 -48.30138984 349.39382425 -48.31088257 345.31584167 C-48.32751847 337.32013811 -48.33299342 329.32446403 -48.33410732 321.32874462 C-48.33505724 314.82531675 -48.33916474 308.32189861 -48.34550858 301.81847382 C-48.36313349 283.37410625 -48.37234631 264.92976197 -48.37084763 246.48538592 C-48.37076772 245.49037947 -48.3706878 244.49537301 -48.37060547 243.47021484 C-48.37052371 242.47399006 -48.37044195 241.47776527 -48.37035771 240.45135185 C-48.36954601 224.33088555 -48.38865093 208.21051296 -48.4168822 192.09007373 C-48.44565065 175.53182795 -48.4594201 158.97362779 -48.45769465 142.4153564 C-48.45703178 133.12182714 -48.46247808 123.82839593 -48.48405075 114.53488922 C-48.50231542 106.61558302 -48.50656722 98.69641922 -48.4930319 90.77710101 C-48.48652681 86.7407911 -48.48629491 82.70475391 -48.5037384 78.66847038 C-48.51958588 74.96309269 -48.51648825 71.25820127 -48.49917014 67.5528346 C-48.49469848 65.59861718 -48.50966612 63.64438396 -48.52564943 61.69022679 C-48.38700679 43.67774462 -42.32529111 27.61052686 -29.73828125 14.5078125 C-21.80628996 7.24342105 -11.22047708 -0.47494083 0 0 Z " fill="#A0CAEB" transform="translate(377,297)"/>
<path d="M0 0 C0.33 0 0.66 0 1 0 C1.33 4.95 1.66 9.9 2 15 C2.33 15 2.66 15 3 15 C3.02288468 55.26477267 3.04050755 95.5295445 3.05106533 135.79432238 C3.05231605 140.54704501 3.05361037 145.29976762 3.05493164 150.05249023 C3.05519395 150.99867894 3.05545626 151.94486765 3.05572652 152.91972875 C3.06007882 168.24390274 3.06796396 183.56807299 3.0771528 198.89224476 C3.08650155 214.61414086 3.09205821 230.33603499 3.09408849 246.05793375 C3.09546117 255.76057361 3.09979803 265.46320288 3.10791647 275.16583949 C3.11319898 281.81766556 3.11480085 288.46948615 3.11350138 295.12131418 C3.11286036 298.96006875 3.11384888 302.79880479 3.11920547 306.63755608 C3.1249708 310.79960702 3.12298904 314.96161846 3.12025452 319.12367249 C3.12316736 320.3367132 3.1260802 321.54975392 3.12908131 322.79955345 C3.11925689 328.31695379 2.95707125 333.56537522 2 339 C1.87625 340.2375 1.7525 341.475 1.625 342.75 C0.99954922 346.00234405 0.60625635 347.07363661 -2 349 C-3.09208003 345.72375991 -2.89788948 344.90858104 -2.07990456 341.68490028 C-0.67385012 335.13427702 -0.71141992 328.7191503 -0.7215271 322.04159546 C-0.71651603 320.64702871 -0.71063788 319.25246486 -0.70397437 317.85790503 C-0.68825842 314.04955462 -0.68474835 310.24127815 -0.68332577 306.43289924 C-0.67961695 302.31713265 -0.66445415 298.20140594 -0.65071106 294.08566284 C-0.6284808 286.96273597 -0.6134421 279.83982336 -0.60334396 272.71686935 C-0.58873343 262.41838882 -0.56318997 252.11995799 -0.53501268 241.82150669 C-0.48958779 225.11132364 -0.45295521 208.40113341 -0.421875 191.69091797 C-0.39167182 175.46238954 -0.35731343 159.23387863 -0.31738281 143.00537109 C-0.31492126 142.00436781 -0.31245972 141.00336454 -0.30992357 139.97202782 C-0.29754863 134.95008606 -0.28509216 129.9281445 -0.27259517 124.90620303 C-0.16909182 83.27082643 -0.07986733 41.63542823 0 0 Z " fill="#273371" transform="translate(695,350)"/>
<path d="M0 0 C0.86630559 -0.00241442 1.73261117 -0.00482883 2.62516844 -0.00731641 C5.5163541 -0.01293347 8.40731683 -0.00430474 11.29849243 0.00431824 C13.37716227 0.00324472 15.45583181 0.001305 17.53450012 -0.00143433 C23.17817577 -0.00628004 28.82177227 0.00137409 34.46543837 0.01151872 C40.39413323 0.02032558 46.3228258 0.01854111 52.25152588 0.01815796 C62.22666742 0.01909482 72.20177858 0.02777402 82.1769104 0.04142761 C93.65035091 0.05707578 105.12375797 0.06242834 116.59720838 0.06169206 C128.86686278 0.06101141 141.13650456 0.06798996 153.40615511 0.07713866 C156.91003627 0.07925275 160.41391535 0.07997752 163.91779709 0.08037758 C210.85087292 0.09061927 210.85087292 0.09061927 231.16421509 1.24723816 C231.16421509 1.57723816 231.16421509 1.90723816 231.16421509 2.24723816 C203.85394028 3.08975288 176.5673472 3.38359243 149.24493599 3.38533783 C142.55605368 3.38650695 135.86722296 3.39953752 129.17835999 3.41490173 C127.46546786 3.41876101 127.46546786 3.41876101 125.71797186 3.42269826 C123.3898245 3.42796024 121.06167718 3.43324572 118.73352993 3.43855429 C103.23279363 3.47338826 87.73213289 3.50019003 72.23135376 3.49772644 C61.66613806 3.4961379 51.10110954 3.51213578 40.53595394 3.54843307 C34.9766527 3.56682443 29.41766427 3.57629087 23.85833931 3.56395721 C18.65959411 3.55252265 13.46141482 3.56421904 8.2627449 3.59359169 C6.36207159 3.60022142 4.46134626 3.5983841 2.56069374 3.58729362 C-12.50920698 3.44235385 -12.50920698 3.44235385 -24.95687866 11.30973816 C-25.39129272 11.94911316 -25.82570679 12.58848816 -26.27328491 13.24723816 C-26.72574585 13.88661316 -27.17820679 14.52598816 -27.64437866 15.18473816 C-30.12464926 19.4784525 -31.08656968 23.01284182 -31.11425781 27.97363281 C-31.1254213 29.11641693 -31.13658478 30.25920105 -31.14808655 31.43661499 C-31.15024673 32.68098831 -31.15240692 33.92536163 -31.15463257 35.20744324 C-31.16467819 36.5249054 -31.17472382 37.84236755 -31.18507385 39.19975281 C-31.21233965 42.80470134 -31.22751306 46.40961087 -31.24050188 50.01463532 C-31.25614743 53.78497931 -31.2829331 57.55524383 -31.30853271 61.32553101 C-31.35529532 68.46165198 -31.39205159 75.59778794 -31.42520559 82.7339837 C-31.46344479 90.85974991 -31.51285023 98.98543626 -31.56318974 107.11113513 C-31.66647213 123.82311209 -31.75574451 140.53513338 -31.83578491 157.24723816 C-32.16578491 157.24723816 -32.49578491 157.24723816 -32.83578491 157.24723816 C-34.1513538 143.00553766 -33.99971468 128.74371379 -34.00375366 114.45426941 C-34.00615682 112.45138101 -34.00856213 110.44849259 -34.01121408 108.4456045 C-34.01929538 102.1765983 -34.02180357 95.90760641 -34.02108765 89.63859558 C-34.02048345 83.18258451 -34.03111745 76.72665606 -34.04683131 70.27066594 C-34.05989818 64.70261488 -34.06527214 59.13459096 -34.06463224 53.56652468 C-34.06437768 50.25111095 -34.06813209 46.93578806 -34.07781029 43.62038612 C-34.08756943 39.93709424 -34.08474991 36.2540196 -34.07870483 32.57072449 C-34.08432434 31.4772319 -34.08994385 30.38373932 -34.09573364 29.2571106 C-34.09153915 28.2551767 -34.08734467 27.2532428 -34.08302307 26.22094727 C-34.08356784 25.35182111 -34.08411261 24.48269495 -34.08467388 23.58723164 C-33.81241249 21.0274963 -33.09926407 19.47032697 -31.83578491 17.24723816 C-31.18609741 15.76223816 -31.18609741 15.76223816 -30.52328491 14.24723816 C-28.68392708 10.97726869 -26.85658194 9.41601551 -23.83578491 7.24723816 C-23.17578491 6.58723816 -22.51578491 5.92723816 -21.83578491 5.24723816 C-14.64940303 1.23623432 -8.08756076 -0.05205645 0 0 Z " fill="#B9E3FD" transform="translate(400.8357849121094,330.7527618408203)"/>
<path d="M0 0 C1.98 0.495 1.98 0.495 4 1 C4 1.66 4 2.32 4 3 C4.80219971 2.96970703 5.60439941 2.93941406 6.4309082 2.90820312 C10.05808393 2.77155664 13.68529129 2.63576806 17.3125 2.5 C18.57513672 2.45230469 19.83777344 2.40460938 21.13867188 2.35546875 C22.34716797 2.31035156 23.55566406 2.26523437 24.80078125 2.21875 C26.47394409 2.1559082 26.47394409 2.1559082 28.1809082 2.09179688 C30.11981914 2.02866095 32.0600614 2 34 2 C34.33 1.34 34.66 0.68 35 0 C35.66 0 36.32 0 37 0 C37 0.66 37 1.32 37 2 C43.08723655 2.02467081 49.17444417 2.04284604 55.26171875 2.05493164 C57.33366401 2.05996852 59.4056057 2.06679825 61.47753906 2.07543945 C64.45118082 2.08753321 67.42477569 2.09323467 70.3984375 2.09765625 C71.32868744 2.10281754 72.25893738 2.10797882 73.21737671 2.11329651 C74.50848862 2.11340981 74.50848862 2.11340981 75.82568359 2.11352539 C76.96485733 2.11685631 76.96485733 2.11685631 78.12704468 2.12025452 C80.09213361 2.11601039 80.09213361 2.11601039 82 1 C83.33621989 1.32156694 84.66879536 1.65826458 86 2 C88.4138176 2.22117559 90.83114597 2.40572242 93.25 2.5625 C94.51328125 2.64628906 95.7765625 2.73007812 97.078125 2.81640625 C98.52445313 2.90728516 98.52445313 2.90728516 100 3 C100 3.66 100 4.32 100 5 C92.9009563 5.84942157 85.92085071 6.14110927 78.7749939 6.12025452 C77.14509079 6.12153615 77.14509079 6.12153615 75.48226035 6.12284368 C71.86494681 6.12448225 68.24768031 6.11900381 64.63037109 6.11352539 C62.02794394 6.11324314 59.42551671 6.11340199 56.8230896 6.1139679 C51.23238011 6.11449056 45.64168234 6.11137069 40.0509758 6.10573006 C31.96789539 6.09758012 23.88482062 6.09499626 15.80173655 6.09374207 C2.68536673 6.09155703 -10.43099685 6.08491182 -23.54736328 6.07543945 C-36.28369109 6.06625115 -49.0200172 6.05917726 -61.75634766 6.05493164 C-62.54228725 6.05466892 -63.32822685 6.05440619 -64.1379828 6.05413551 C-68.08107126 6.05283041 -72.02415973 6.05156672 -75.9672482 6.05032361 C-108.64483668 6.03996806 -141.3224175 6.02236468 -174 6 C-173.34 4.68 -172.68 3.36 -172 2 C-171.34 2 -170.68 2 -170 2 C-170 2.66 -170 3.32 -170 4 C-168.96383545 3.78452515 -168.96383545 3.78452515 -167.90673828 3.56469727 C-159.49567161 1.97193386 -151.41574027 1.79486618 -142.875 1.9375 C-140.28911646 1.97179217 -137.70317388 2.00196475 -135.1171875 2.02734375 C-133.42505127 2.05429321 -133.42505127 2.05429321 -131.69873047 2.08178711 C-129.02998072 2.18995473 -129.02998072 2.18995473 -127 1 C-124.98793348 1.22356295 -122.97538826 1.45036323 -120.97265625 1.74609375 C-118.83557926 2.06382987 -118.83557926 2.06382987 -116 2 C-77.66666667 2 -39.33333333 2 -1 2 C-0.67 1.34 -0.34 0.68 0 0 Z " fill="#151C43" transform="translate(548,289)"/>
<path d="M0 0 C-5.30995815 3.5399721 -11.78730425 3.12943116 -18 3 C-18 3.66 -18 4.32 -18 5 C-19.08667969 4.87431641 -19.08667969 4.87431641 -20.1953125 4.74609375 C-25.3349182 4.20472195 -29.91365942 3.76278202 -35 5 C-35 4.34 -35 3.68 -35 3 C-35.9299881 3.0714624 -36.8599762 3.1429248 -37.81814575 3.21655273 C-49.90768465 4.07258698 -61.96182011 4.1189091 -74.07726669 4.07516479 C-77.6919895 4.06223238 -81.30667503 4.05584465 -84.92141724 4.05102539 C-92.57262853 4.03969794 -100.22380825 4.02040446 -107.875 4 C-116.7957651 3.97637583 -125.71651344 3.95604097 -134.6373024 3.94406128 C-138.19986541 3.93757703 -141.76237526 3.92507988 -145.32492065 3.91235352 C-147.49379429 3.90872358 -149.66266841 3.90537153 -151.83154297 3.90234375 C-153.31817444 3.89459427 -153.31817444 3.89459427 -154.83483887 3.88668823 C-155.73995209 3.88661774 -156.64506531 3.88654724 -157.5776062 3.88647461 C-158.36393873 3.884254 -159.15027126 3.88203339 -159.96043205 3.87974548 C-162.20308849 3.92333983 -162.20308849 3.92333983 -165 5 C-167.33646152 4.68935047 -169.66951395 4.35269009 -172 4 C-174.44038175 3.91249879 -176.88275758 3.87216164 -179.32470703 3.87060547 C-180.36757874 3.86797699 -180.36757874 3.86797699 -181.43151855 3.86529541 C-183.706976 3.8609295 -185.9823544 3.86379556 -188.2578125 3.8671875 C-189.85008763 3.8665131 -191.44236267 3.86554194 -193.03463745 3.86428833 C-196.36148057 3.86281862 -199.68829674 3.86494308 -203.01513672 3.86962891 C-207.2731547 3.87533507 -211.53110975 3.87203698 -215.78912544 3.86605644 C-219.07311475 3.86243913 -222.35708919 3.86359465 -225.64107895 3.86618423 C-227.21111941 3.86684978 -228.78116124 3.86603812 -230.3512001 3.86370468 C-232.54553038 3.86115792 -234.73975928 3.86504682 -236.93408203 3.87060547 C-238.18093781 3.87140106 -239.42779358 3.87219666 -240.71243286 3.87301636 C-243.61581289 3.98516061 -246.16735643 4.42022224 -249 5 C-255.27659574 4.36170213 -255.27659574 4.36170213 -258 3 C-258 2.34 -258 1.68 -258 1 C-256.08199443 0.99365209 -256.08199443 0.99365209 -254.12524128 0.98717594 C-223.78078729 0.88652784 -193.43635561 0.78082378 -163.09194135 0.66888306 C-159.35808799 0.65511327 -155.62423447 0.64138621 -151.89038086 0.62768555 C-151.14702933 0.62495724 -150.40367781 0.62222894 -149.63780048 0.61941796 C-137.59728133 0.57532785 -125.55675285 0.53469939 -113.51621739 0.49534739 C-101.16401341 0.45489982 -88.81182675 0.41073879 -76.45964831 0.36312145 C-68.83604516 0.33384997 -61.21244327 0.30748439 -53.58881756 0.28482103 C-47.74569332 0.26714064 -41.90259648 0.24429683 -36.05949783 0.21950912 C-33.66050631 0.2101448 -31.26150754 0.2024673 -28.86250496 0.19658089 C-25.5930588 0.18830927 -22.32369262 0.17402945 -19.05427551 0.15821838 C-18.09999359 0.15724028 -17.14571168 0.15626217 -16.16251212 0.15525442 C-10.81691478 0.12189812 -5.04643173 -1.68214391 0 0 Z " fill="#1C2B68" transform="translate(650,739)"/>
<path d="M0 0 C1.54581715 -0.00467997 1.54581715 -0.00467997 3.12286294 -0.00945449 C6.5566687 -0.0173962 9.99029587 -0.01112586 13.42410278 -0.00482178 C15.89343875 -0.00753323 18.36277391 -0.01109504 20.83210754 -0.01544189 C26.82972407 -0.02360255 32.82727115 -0.02242569 38.82488494 -0.01661661 C43.69783727 -0.01209273 48.57077557 -0.01149035 53.4437294 -0.01366425 C54.13825949 -0.01397071 54.83278959 -0.01427718 55.54836605 -0.01459293 C56.95938205 -0.0152324 58.37039805 -0.01588082 59.78141405 -0.01653811 C72.99387618 -0.02223338 86.20631049 -0.01569483 99.41876806 -0.00493738 C110.75861357 0.00400926 122.09841816 0.00243538 133.43826294 -0.0067749 C146.61400276 -0.01747133 159.78971829 -0.0216966 172.96546185 -0.01555037 C174.36934034 -0.01491328 175.77321883 -0.01428454 177.17709732 -0.01366425 C178.2131693 -0.01320142 178.2131693 -0.01320142 179.27017202 -0.01272924 C184.14101615 -0.0110013 189.01184487 -0.01391929 193.88268661 -0.01862335 C200.43098778 -0.02480869 206.97922334 -0.02042325 213.52752113 -0.00883484 C215.93542794 -0.0061821 218.34334124 -0.00696374 220.7512455 -0.01136017 C224.02753101 -0.01679245 227.3035647 -0.01000984 230.57983398 0 C231.5415844 -0.00446144 232.50333483 -0.00892289 233.4942292 -0.01351953 C234.80636192 -0.00569628 234.80636192 -0.00569628 236.14500237 0.002285 C237.27969328 0.00277206 237.27969328 0.00277206 238.43730724 0.00326896 C240.40896606 0.25396729 240.40896606 0.25396729 243.40896606 2.25396729 C241.4459596 2.26031519 241.4459596 2.26031519 239.44329643 2.26679134 C208.38180389 2.3674553 177.32033303 2.4731624 146.25887912 2.58508423 C142.43618688 2.59885389 138.61349449 2.61258097 134.790802 2.62628174 C134.0297691 2.62901004 133.26873619 2.63173835 132.48464169 2.63454933 C120.16027071 2.67863066 107.83589066 2.71926215 95.5115038 2.7586199 C82.86662216 2.79907788 70.22175737 2.84324047 57.5769006 2.89084584 C49.7736498 2.92010664 41.97040022 2.94647393 34.16712745 2.96914626 C28.18472647 2.9868375 22.20235653 3.00968166 16.21998024 3.03445816 C13.76496909 3.04381659 11.30995089 3.05149621 8.85492897 3.0573864 C5.50701046 3.06566804 2.15916954 3.07995065 -1.1887207 3.0957489 C-2.16343547 3.09672701 -3.13815024 3.09770512 -4.14240181 3.09871286 C-7.92195363 3.12169738 -11.38577259 3.21699913 -15.11617851 3.88885593 C-16.34123195 4.06958605 -16.34123195 4.06958605 -17.59103394 4.25396729 C-18.25103394 3.59396729 -18.91103394 2.93396729 -19.59103394 2.25396729 C-12.92098469 0.54368261 -6.8693357 -0.03231574 0 0 Z " fill="#A2C5E7" transform="translate(397.5910339355469,293.74603271484375)"/>
<path d="M0 0 C1.89575251 -0.02721176 3.79161979 -0.04649136 5.6875 -0.0625 C6.74324219 -0.07410156 7.79898437 -0.08570313 8.88671875 -0.09765625 C12 0 12 0 14.30502319 0.49801636 C17.33567381 1.06252475 20.14995899 1.12713663 23.23291016 1.12939453 C24.47255524 1.13254669 25.71220032 1.13569885 26.9894104 1.13894653 C28.33929479 1.13715374 29.68917886 1.13510205 31.0390625 1.1328125 C32.44371558 1.13348764 33.84836855 1.13445942 35.25302124 1.13571167 C38.20352282 1.13718551 41.15399413 1.13504866 44.10449219 1.13037109 C47.82821753 1.12474659 51.55187015 1.12798351 55.2755928 1.13383865 C75.44797979 1.20662343 75.44797979 1.20662343 95.59243774 0.26150513 C99.01452176 0.01788105 101.70454286 0.16203778 105 1 C107.80166806 1.09532542 110.57753905 1.1400893 113.37890625 1.1328125 C114.1873851 1.13376923 114.99586395 1.13472595 115.82884216 1.13571167 C117.53425169 1.1363909 119.23966383 1.13455456 120.94506836 1.13037109 C123.55653677 1.12501224 126.16783375 1.13032835 128.77929688 1.13671875 C130.43750038 1.13605806 132.09570378 1.13477708 133.75390625 1.1328125 C134.92585289 1.13584885 134.92585289 1.13584885 136.12147522 1.13894653 C139.34313795 1.12499 141.92149008 1.02616997 145 0 C146.33816207 0.31338661 147.67097446 0.64988571 149 1 C150.86331146 1.08595017 152.72943855 1.11772649 154.59472656 1.11352539 C155.71558655 1.11344986 156.83644653 1.11337433 157.99127197 1.11329651 C159.19555847 1.10813522 160.39984497 1.10297394 161.640625 1.09765625 C163.49660309 1.09553383 163.49660309 1.09553383 165.39007568 1.09336853 C168.67144941 1.0887211 171.95277373 1.07974347 175.23413086 1.06866455 C178.58577011 1.0584152 181.93741148 1.05394859 185.2890625 1.04882812 C191.85939431 1.03780025 198.42969311 1.02106296 205 1 C205 1.66 205 2.32 205 3 C133.39 3 61.78 3 -12 3 C-12 2.67 -12 2.34 -12 2 C-6.06 1.505 -6.06 1.505 0 1 C0 0.67 0 0.34 0 0 Z " fill="#8F9FFA" transform="translate(397,737)"/>
<path d="M0 0 C1.07871872 0.00000755 1.07871872 0.00000755 2.17922974 0.00001526 C4.48816469 0.00348568 6.79662881 0.02228586 9.10546875 0.04296875 C10.69018446 0.05115702 12.27490129 0.05913179 13.85961914 0.06689453 C43.78307206 0.25919049 43.78307206 0.25919049 49.29296875 3.23046875 C48.15783592 3.23260628 48.15783592 3.23260628 46.99977112 3.23478699 C39.83546812 3.25268557 32.67187777 3.29449985 25.50788975 3.36255932 C21.82557238 3.39671528 18.14366485 3.42192132 14.46118164 3.42602539 C10.90110003 3.43033318 7.34194111 3.45899717 3.78214836 3.50390053 C1.77669463 3.52303375 -0.22894585 3.51754232 -2.23448181 3.51152039 C-11.05075718 3.65111252 -17.39581271 5.03834465 -23.828125 11.29296875 C-24.26253906 11.93234375 -24.69695312 12.57171875 -25.14453125 13.23046875 C-25.59699219 13.86984375 -26.04945313 14.50921875 -26.515625 15.16796875 C-28.99589559 19.46168309 -29.95781601 22.99607241 -29.98550415 27.9568634 C-29.99666763 29.09964752 -30.00783112 30.24243164 -30.01933289 31.41984558 C-30.02149307 32.6642189 -30.02365326 33.90859222 -30.02587891 35.19067383 C-30.03592453 36.50813599 -30.04597015 37.82559814 -30.05632019 39.1829834 C-30.08358599 42.78793193 -30.0987594 46.39284146 -30.11174822 49.99786592 C-30.12739376 53.7682099 -30.15417944 57.53847442 -30.17977905 61.3087616 C-30.22654166 68.44488257 -30.26329793 75.58101853 -30.29645193 82.71721429 C-30.33469113 90.8429805 -30.38409657 98.96866685 -30.43443608 107.09436572 C-30.53771847 123.80634268 -30.62699085 140.51836397 -30.70703125 157.23046875 C-31.03703125 157.23046875 -31.36703125 157.23046875 -31.70703125 157.23046875 C-33.02260014 142.98876825 -32.87096102 128.72694438 -32.875 114.4375 C-32.87740316 112.4346116 -32.87980847 110.43172318 -32.88246042 108.42883509 C-32.89054172 102.15982889 -32.89304991 95.890837 -32.89233398 89.62182617 C-32.89172979 83.1658151 -32.90236379 76.70988665 -32.91807765 70.25389653 C-32.93114452 64.68584548 -32.93651848 59.11782155 -32.93587857 53.54975528 C-32.93562401 50.23434154 -32.93937843 46.91901865 -32.94905663 43.60361671 C-32.95881577 39.92032483 -32.95599625 36.23725019 -32.94995117 32.55395508 C-32.95557068 31.46046249 -32.96119019 30.36696991 -32.96697998 29.24034119 C-32.96278549 28.23840729 -32.958591 27.23647339 -32.95426941 26.20417786 C-32.95481418 25.3350517 -32.95535894 24.46592554 -32.95592022 23.57046223 C-32.68365882 21.0107269 -31.97051041 19.45355756 -30.70703125 17.23046875 C-30.05734375 15.74546875 -30.05734375 15.74546875 -29.39453125 14.23046875 C-27.55517342 10.96049928 -25.72782827 9.3992461 -22.70703125 7.23046875 C-22.04703125 6.57046875 -21.38703125 5.91046875 -20.70703125 5.23046875 C-13.92792031 1.44677892 -7.74421401 -0.02419622 0 0 Z " fill="#D2F9FE" transform="translate(399.70703125,330.76953125)"/>
<path d="M0 0 C2.62618269 1.31309134 2.87964604 2.61995177 4.125 5.25 C7.40233313 11.31306629 11.61714891 13.82811816 18.0119257 16.04338646 C22.67603066 17.34343805 27.2538851 17.28853884 32.06700134 17.2784729 C33.06528554 17.2842653 34.06356974 17.2900577 35.09210497 17.29602563 C38.42854242 17.31299595 41.76484128 17.31589962 45.10131836 17.31884766 C47.49641254 17.32814786 49.89150348 17.33831667 52.28659058 17.34928894 C58.10965469 17.37375909 63.93269194 17.38918391 69.75579511 17.40060402 C76.53371721 17.41438599 83.31158429 17.43934617 90.08947022 17.46498732 C102.17592089 17.5104156 114.26238149 17.54704676 126.34887695 17.578125 C138.08717592 17.6083268 149.82545063 17.64268454 161.5637207 17.68261719 C162.64972199 17.68630951 162.64972199 17.68630951 163.75766271 17.69007643 C167.38989781 17.70245134 171.02213264 17.71490782 174.65436733 17.72740483 C204.7695446 17.83091325 234.88475057 17.91998914 265 18 C265 18.33 265 18.66 265 19 C233.9587842 19.21894227 202.91751999 19.41712194 171.87599707 19.58644359 C168.20867167 19.60646595 164.54134727 19.62666476 160.87402344 19.64697266 C160.14394592 19.65101251 159.41386841 19.65505237 158.66166733 19.65921465 C146.85075748 19.72499035 135.03998565 19.80504948 123.229203 19.89041659 C111.10418793 19.97773589 98.97915159 20.04963756 86.85395896 20.10732102 C79.37608151 20.14337883 71.89847812 20.19136431 64.42078166 20.25476131 C58.68036598 20.30213899 52.94000603 20.32803281 47.19943047 20.34602928 C44.84925412 20.35673177 42.49909728 20.37433883 40.14903069 20.39944649 C36.93368419 20.43275396 33.71918973 20.44093228 30.50369263 20.4430542 C29.57953871 20.45859651 28.65538479 20.47413883 27.70322621 20.49015212 C21.09255505 20.4562352 15.95958445 18.81692108 10 16 C10 15.34 10 14.68 10 14 C7.66785852 12.79371992 5.50357861 11.8345262 3 11 C3 10.01 3 9.02 3 8 C2.01 7.34 1.02 6.68 0 6 C-0.75 3.4375 -0.75 3.4375 -1 1 C-0.67 0.67 -0.34 0.34 0 0 Z " fill="#B7D7FE" transform="translate(369,489)"/>
<path d="M0 0 C2.16258191 3.91205475 2.27507909 7.26067886 2.23046875 11.65234375 C2.23001053 12.38949112 2.22955231 13.12663849 2.2290802 13.88612366 C2.22606547 15.44192112 2.21820248 16.99771577 2.20581055 18.5534668 C2.18759041 20.92572823 2.18530081 23.29759784 2.18554688 25.66992188 C2.18062958 27.18489918 2.17480034 28.69987386 2.16796875 30.21484375 C2.16685593 30.9201976 2.1657431 31.62555145 2.16459656 32.35227966 C2.13888173 35.04239147 2.09094196 37.59441259 1.50080967 40.22631359 C0.85127642 43.82369132 0.84656898 47.36186998 0.84178162 51.00422668 C0.83684364 51.80479152 0.83190566 52.60535635 0.82681805 53.43018073 C0.81147484 56.10945763 0.80309104 58.78871062 0.79467773 61.46801758 C0.78509671 63.38991506 0.7750865 65.31181043 0.76467896 67.23370361 C0.73764812 72.45016989 0.71662867 77.6666452 0.69667697 82.88314271 C0.67480621 88.335091 0.64742285 93.78701151 0.62062073 99.23893738 C0.5707086 109.56251013 0.52576426 119.88609832 0.48259836 130.20970124 C0.43321336 141.9629372 0.3782999 153.71614528 0.32291877 165.46935427 C0.20912144 189.64621017 0.10227748 213.82309282 0 238 C-0.33 238 -0.66 238 -1 238 C-1.02348686 211.54594616 -1.041056 185.0918939 -1.05181217 158.63783169 C-1.05694188 146.3514057 -1.06392025 134.06498625 -1.07543945 121.77856445 C-1.0854889 111.0545646 -1.09187752 100.33056949 -1.09408849 89.60656506 C-1.0953784 83.9421 -1.0983527 78.27764846 -1.10573006 72.61318779 C-1.13610017 48.38822674 -1.05070404 24.205809 0 0 Z " fill="#AEE7FD" transform="translate(331,448)"/>
<path d="M0 0 C0.495 0.99 0.495 0.99 1 2 C0.46375 2.103125 -0.0725 2.20625 -0.625 2.3125 C-3.12364481 2.95819628 -3.12364481 2.95819628 -5.75 4.375 C-8.19915524 5.59957762 -10.4373662 6.54253438 -13 7.4375 C-22.37519361 10.88870979 -29.68106837 17.70872423 -35 26 C-35.33 26.99 -35.66 27.98 -36 29 C-36.48339844 29.46792969 -36.96679688 29.93585938 -37.46484375 30.41796875 C-39.29582081 32.30485351 -39.80571783 33.80863214 -40.5625 36.3125 C-40.80742187 37.10785156 -41.05234375 37.90320313 -41.3046875 38.72265625 C-41.53414063 39.47417969 -41.76359375 40.22570312 -42 41 C-42.391875 42.0725 -42.78375 43.145 -43.1875 44.25 C-43.99685565 46.9893576 -44.1669151 49.16244331 -44 52 C-44.99 52.495 -44.99 52.495 -46 53 C-48.3835846 44.26018981 -44.27734605 36.20883872 -40.375 28.4375 C-32.78299981 15.26537966 -21.31939309 6.11522707 -7.25390625 0.59375 C-4.75547725 -0.064415 -2.57273005 -0.10889863 0 0 Z " fill="#BCEDF6" transform="translate(377,297)"/>
<path d="M0 0 C1.90558685 0.01061211 1.90558685 0.01061211 3.84967041 0.0214386 C7.18427795 0.0444861 10.51708304 0.08918561 13.85119629 0.1449585 C17.27043305 0.19663488 20.68985809 0.21905442 24.109375 0.24414062 C30.78694434 0.29894541 37.46368095 0.38237196 44.140625 0.48828125 C44.635625 1.47828125 44.635625 1.47828125 45.140625 2.48828125 C44.07399879 2.49708061 44.07399879 2.49708061 42.98582458 2.50605774 C36.26251517 2.56412285 29.53951883 2.63627782 22.81652737 2.72399616 C19.36070048 2.76859621 15.90498866 2.80787437 12.44897461 2.8347168 C8.46963687 2.86586261 4.49078851 2.92064783 0.51171875 2.9765625 C-1.33710655 2.98614738 -1.33710655 2.98614738 -3.22328186 2.9959259 C-9.5676591 3.10412296 -14.24626287 3.48157987 -19.859375 6.48828125 C-21.85201091 7.17664638 -23.84978837 7.85109524 -25.859375 8.48828125 C-25.859375 7.49828125 -25.859375 6.50828125 -25.859375 5.48828125 C-17.0418944 1.04775774 -9.80750615 -0.20973524 0 0 Z " fill="#AAD2F1" transform="translate(502.859375,370.51171875)"/>
<path d="M0 0 C2.62618269 1.31309134 2.87964604 2.61995177 4.125 5.25 C7.4309809 11.36606466 11.69926136 13.92680881 18.2013092 16.04086304 C21.96704511 16.99167917 25.162921 17.27556336 29.03686523 17.31884766 C29.70113022 17.32889328 30.3653952 17.3389389 31.04978943 17.34928894 C33.21938301 17.37988569 35.38885459 17.39708957 37.55859375 17.4140625 C39.0731764 17.43279316 40.58774882 17.45236796 42.10231018 17.4727478 C46.06910142 17.52387481 50.03592641 17.56360388 54.00286865 17.60089111 C58.05863666 17.64105327 62.11426658 17.69208963 66.16992188 17.7421875 C74.1131866 17.8387164 82.05652019 17.92319411 90 18 C90 18.33 90 18.66 90 19 C81.0462704 19.2242784 72.09239399 19.42561648 63.13752174 19.59840012 C58.97854237 19.67935291 54.82002901 19.76793585 50.66162109 19.87451172 C46.64181353 19.97724538 42.62205073 20.05921043 38.60151291 20.12732697 C37.07452026 20.15674361 35.54764785 20.19340085 34.02101517 20.2377243 C25.28132686 20.48623655 17.86642978 20.23299105 10 16 C10 15.34 10 14.68 10 14 C7.66785852 12.79371992 5.50357861 11.8345262 3 11 C3 10.01 3 9.02 3 8 C2.01 7.34 1.02 6.68 0 6 C-0.75 3.4375 -0.75 3.4375 -1 1 C-0.67 0.67 -0.34 0.34 0 0 Z " fill="#B7EAFD" transform="translate(369,489)"/>
<path d="M0 0 C0.99 0.33 1.98 0.66 3 1 C1.82189288 4.9874395 0.4867766 7.71745488 -2 11 C-2.680625 12.7325 -2.680625 12.7325 -3.375 14.5 C-5.12094055 18.26048733 -6.72593088 19.58752801 -10 22 C-10.33 22.99 -10.66 23.98 -11 25 C-12.31647119 25.69937532 -13.65022151 26.36729133 -15 27 C-15.33 27.66 -15.66 28.32 -16 29 C-16.99 29.33 -17.98 29.66 -19 30 C-19.33 30.66 -19.66 31.32 -20 32 C-21.63790712 33.04644066 -23.31008021 34.0398183 -25 35 C-25.825 35.5775 -26.65 36.155 -27.5 36.75 C-30.50572303 38.25286152 -31.85356854 37.98887846 -35 37 C-32.87601192 34.87601192 -31.28340856 34.15211358 -28.5625 32.9375 C-14.0391682 25.75978399 -6.03907691 14.63849979 0 0 Z " fill="#18235E" transform="translate(691,699)"/>
<path d="M0 0 C2.40510414 3.60765621 2.25660863 6.16889119 2.1953125 10.32958984 C2.19239197 11.07302139 2.18947144 11.81645294 2.1864624 12.58241272 C2.17885278 14.19645212 2.16662203 15.81047481 2.15032959 17.42444992 C2.12480891 19.98007289 2.1117727 22.53548829 2.10205078 25.09121704 C2.07530035 31.44000936 2.02694333 37.78860484 1.97924805 44.13726807 C1.93976901 49.49963903 1.90849138 54.86193619 1.88812256 60.22441483 C1.87517243 62.7399442 1.85015386 65.25516989 1.82470703 67.77059937 C1.81743948 69.31760393 1.81073633 70.86461128 1.8046875 72.41162109 C1.78918854 73.45759712 1.78918854 73.45759712 1.77337646 74.52470398 C1.77252236 78.46491355 2.26921247 81.45057015 4 85 C2.68 85 1.36 85 0 85 C-1.2944795 81.08808049 -1.09256095 77.17573674 -1.02172852 73.11035156 C-1.01212097 72.31972824 -1.00251343 71.52910492 -0.99261475 70.71452332 C-0.95968659 68.10646485 -0.91933079 65.49857714 -0.87890625 62.890625 C-0.85459909 61.08030801 -0.83075583 59.26998473 -0.80735779 57.45965576 C-0.74457619 52.69863723 -0.67549276 47.93773016 -0.60510254 43.17681885 C-0.53436558 38.31714955 -0.46958071 33.45740132 -0.40429688 28.59765625 C-0.2753609 19.06501741 -0.13976818 9.53248573 0 0 Z " fill="#254280" transform="translate(371,408)"/>
<path d="M0 0 C10.99430331 -0.39821886 19.20425656 3.15403587 27.60546875 10.16015625 C30.23046875 13.09765625 30.23046875 13.09765625 31.60546875 15.16015625 C31.27546875 15.82015625 30.94546875 16.48015625 30.60546875 17.16015625 C30.26515625 16.71285156 29.92484375 16.26554688 29.57421875 15.8046875 C24.24703689 9.15987821 18.12872663 4.67234716 9.60546875 3.16015625 C-2.93858448 2.16459647 -11.54427154 4.45125735 -21.39453125 12.16015625 C-20.76953125 9.84765625 -20.76953125 9.84765625 -19.39453125 7.16015625 C-16.45703125 5.53515625 -16.45703125 5.53515625 -13.39453125 4.16015625 C-12.94078125 3.62390625 -12.48703125 3.08765625 -12.01953125 2.53515625 C-8.78531233 -0.20149052 -4.06772179 0.27206622 0 0 Z " fill="#A8D3F9" transform="translate(408.39453125,544.83984375)"/>
<path d="M0 0 C1.65 0.99 3.3 1.98 5 3 C4.9278125 3.80179687 4.855625 4.60359375 4.78125 5.4296875 C4.20181469 12.52777003 3.89229927 19.56740827 3.875 26.6875 C3.87048828 27.46528809 3.86597656 28.24307617 3.86132812 29.04443359 C3.86990212 32.28897761 3.96688198 34.90064595 5 38 C4.66666667 39.66666667 4.33333333 41.33333333 4 43 C4 44.37515782 4.02214578 45.75043441 4.0625 47.125 C4 51 4 51 2 54 C2 38.49 2 22.98 2 7 C1.34 7 0.68 7 0 7 C0 4.69 0 2.38 0 0 Z " fill="#284582" transform="translate(369,353)"/>
<path d="M0 0 C0.66 0 1.32 0 2 0 C1.42806517 3.91984606 0.25824376 6.5530831 -1.875 9.875 C-3.73836288 12.86172997 -5.42562865 15.73685823 -6.75 19 C-8 22 -8 22 -10 24 C-10.66 24.99 -11.32 25.98 -12 27 C-12.33 25.35 -12.66 23.7 -13 22 C-12.34 22 -11.68 22 -11 22 C-11.33 20.68 -11.66 19.36 -12 18 C-11.01 17.67 -10.02 17.34 -9 17 C-8.27566653 15.02015519 -7.62256028 13.01416562 -7 11 C-6.38561509 9.54878047 -5.738448 8.11108746 -5.0625 6.6875 C-4.74410156 6.01074219 -4.42570312 5.33398438 -4.09765625 4.63671875 C-3 3 -3 3 0 2 C0 1.34 0 0.68 0 0 Z " fill="#152351" transform="translate(341,314)"/>
<path d="M0 0 C-4.75 4 -4.75 4 -7 4 C-7 4.66 -7 5.32 -7 6 C-7.66 6 -8.32 6 -9 6 C-9.66 7.65 -10.32 9.3 -11 11 C-11.66 11 -12.32 11 -13 11 C-13.12375 11.9075 -13.2475 12.815 -13.375 13.75 C-13.9275659 16.62334269 -14.64482241 18.46592809 -16 21 C-16.65769403 14.09421272 -15.71188235 10.59401604 -11.703125 4.9453125 C-8.66763819 1.4781739 -4.70343855 -2.35171927 0 0 Z " fill="#163069" transform="translate(386,338)"/>
<path d="M0 0 C1.79244141 0.01740234 1.79244141 0.01740234 3.62109375 0.03515625 C5.41740234 0.04869141 5.41740234 0.04869141 7.25 0.0625 C8.17683594 0.07410156 9.10367188 0.08570313 10.05859375 0.09765625 C10.05859375 0.75765625 10.05859375 1.41765625 10.05859375 2.09765625 C11.37859375 2.42765625 12.69859375 2.75765625 14.05859375 3.09765625 C1.51859375 3.09765625 -11.02140625 3.09765625 -23.94140625 3.09765625 C-19.56978177 0.91184401 -16.47511546 0.89666745 -11.75390625 1.03515625 C-9.14515037 1.0967804 -6.55189053 1.11830415 -3.94140625 1.09765625 C-2.94140625 0.09765625 -2.94140625 0.09765625 0 0 Z " fill="#858CF5" transform="translate(626.94140625,736.90234375)"/>
<path d="M0 0 C2.62618269 1.31309134 2.87964604 2.61995177 4.125 5.25 C7.18141502 10.90436779 11.0821706 13.59549512 17.0703125 15.7421875 C18.69664545 16.22284461 20.34697637 16.62118209 22 17 C21.67 17.99 21.34 18.98 21 20 C17.37 18.68 13.74 17.36 10 16 C10 15.34 10 14.68 10 14 C7.66785852 12.79371992 5.50357861 11.8345262 3 11 C3 10.01 3 9.02 3 8 C2.01 7.34 1.02 6.68 0 6 C-0.75 3.4375 -0.75 3.4375 -1 1 C-0.67 0.67 -0.34 0.34 0 0 Z " fill="#ACE3F9" transform="translate(369,489)"/>
<path d="M0 0 C0.66 0.33 1.32 0.66 2 1 C1.49210937 1.30292969 0.98421875 1.60585938 0.4609375 1.91796875 C-7.23430366 6.60140204 -12.19846241 10.4679058 -15.82421875 18.890625 C-17 21 -17 21 -20 22 C-19.625 19.0625 -19.625 19.0625 -19 16 C-18.34 15.67 -17.68 15.34 -17 15 C-16.731875 14.236875 -16.46375 13.47375 -16.1875 12.6875 C-14.72642312 9.38085234 -12.89501157 8.09888339 -10 6 C-9.34 5.34 -8.68 4.68 -8 4 C-6.01679982 2.96708324 -4.01652194 1.9662501 -2 1 C-1.34 0.67 -0.68 0.34 0 0 Z " fill="#CDF2F9" transform="translate(387,332)"/>
<path d="M0 0 C0.33 0 0.66 0 1 0 C1.66141986 7.81492998 2.17642917 15.20615672 1 23 C1.16371094 23.63035156 1.32742188 24.26070313 1.49609375 24.91015625 C2.08957108 27.37147697 1.89364625 29.24800614 1.5625 31.75 C1.40974609 32.94882812 1.40974609 32.94882812 1.25390625 34.171875 C1.17011719 34.77515625 1.08632813 35.3784375 1 36 C-1.36917502 32.29172606 -1.23492174 29.07831167 -1.1875 24.75 C-1.18105469 24.05777344 -1.17460937 23.36554688 -1.16796875 22.65234375 C-1.05891123 15.08647806 -0.56176986 7.54376674 0 0 Z " fill="#B7F2FA" transform="translate(331,384)"/>
<path d="M0 0 C1.26092972 0.00212242 1.26092972 0.00212242 2.54733276 0.00428772 C5.23732025 0.00989388 7.92722509 0.02244739 10.6171875 0.03515625 C12.43880088 0.04017046 14.26041557 0.0447335 16.08203125 0.04882812 C20.55211527 0.05986531 25.02213736 0.07713405 29.4921875 0.09765625 C29.4921875 0.42765625 29.4921875 0.75765625 29.4921875 1.09765625 C28.5542334 1.1227124 27.6162793 1.14776855 26.64990234 1.17358398 C23.14979459 1.26906509 19.64983299 1.36827689 16.14990234 1.4699707 C14.63887624 1.51311979 13.12780764 1.55480781 11.61669922 1.5949707 C9.43704456 1.65316188 7.25759987 1.71671177 5.078125 1.78125 C3.7689209 1.81790771 2.4597168 1.85456543 1.11083984 1.89233398 C-2.48215101 2.01565698 -2.48215101 2.01565698 -5.85693359 2.74243164 C-6.73172363 2.85965576 -7.60651367 2.97687988 -8.5078125 3.09765625 C-9.1678125 2.43765625 -9.8278125 1.77765625 -10.5078125 1.09765625 C-7.22889325 -0.54180338 -3.60167716 -0.02264553 0 0 Z " fill="#CEF7FB" transform="translate(388.5078125,294.90234375)"/>
<path d="M0 0 C0 3 0 3 -1.375 4.6875 C-3 6 -3 6 -5 6 C-5 6.66 -5 7.32 -5 8 C-10.58901282 10.42542066 -14.79386854 12.13791403 -21 12 C-19.17255808 8.34511616 -13.74884468 7.64961181 -9.99023438 6.38671875 C-5.76671459 4.8951555 -2.93413614 3.55792886 0 0 Z " fill="#B7E6F8" transform="translate(457,398)"/>
<path d="M0 0 C0.33 0 0.66 0 1 0 C1.19777236 3.3953164 1.38139685 6.79125692 1.5625 10.1875 C1.61857422 11.14720703 1.67464844 12.10691406 1.73242188 13.09570312 C1.78076172 14.02705078 1.82910156 14.95839844 1.87890625 15.91796875 C1.94960327 17.19837036 1.94960327 17.19837036 2.02172852 18.50463867 C1.98723034 22.46650202 1.85833446 25.14166554 -1 28 C-1.85025773 25.54369988 -2.00438705 24.02569561 -1.5625 21.4375 C-0.86393516 17.16849266 -0.64746662 12.94136298 -0.4375 8.625 C-0.39431641 7.79355469 -0.35113281 6.96210937 -0.30664062 6.10546875 C-0.20138195 4.07046772 -0.10026928 2.03525297 0 0 Z " fill="#969EFA" transform="translate(647,650)"/>
<path d="M0 0 C0.66 0 1.32 0 2 0 C0.64527694 5.58823264 -3.58113173 8.69001754 -8 12 C-9.31464089 12.70280975 -10.6432185 13.38245147 -12 14 C-12 13.34 -12 12.68 -12 12 C-12.66 11.67 -13.32 11.34 -14 11 C-13.11248047 10.56300781 -13.11248047 10.56300781 -12.20703125 10.1171875 C-6.86041445 7.34357552 -3.64920134 4.75501993 0 0 Z " fill="#959CFA" transform="translate(640,685)"/>
<path d="M0 0 C0.99 0 1.98 0 3 0 C2.979375 0.969375 2.95875 1.93875 2.9375 2.9375 C2.64381501 5.87465895 2.64381501 5.87465895 4 7 C4.07258946 9.18639453 4.08373783 11.37500389 4.0625 13.5625 C4.05347656 14.76003906 4.04445313 15.95757812 4.03515625 17.19140625 C4.02355469 18.11824219 4.01195312 19.04507812 4 20 C2.08437709 17.12656563 1.70789101 16.22496459 1.3671875 12.98828125 C1.28339844 12.23095703 1.19960938 11.47363281 1.11328125 10.69335938 C1.03464844 9.90767578 0.95601562 9.12199219 0.875 8.3125 C0.78863281 7.51521484 0.70226562 6.71792969 0.61328125 5.89648438 C0.40151528 3.93176674 0.19978527 1.96597204 0 0 Z " fill="#151F53" transform="translate(694,343)"/>
<path d="M0 0 C5.23610116 -0.31416607 8.51492303 0.22352378 13 3 C13.33 3.66 13.66 4.32 14 5 C10.08428299 6.305239 8.96107003 5.32239848 5.3125 3.5625 C4.31863281 3.08941406 3.32476563 2.61632812 2.30078125 2.12890625 C1.54152344 1.75636719 0.78226563 1.38382812 0 1 C0 0.67 0 0.34 0 0 Z " fill="#182255" transform="translate(651,296)"/>
<path d="M0 0 C3.61621957 1.20540652 4.06985695 2.2255028 6.0625 5.375 C6.56910156 6.16648437 7.07570313 6.95796875 7.59765625 7.7734375 C8.06042969 8.50820313 8.52320313 9.24296875 9 10 C9.99 11.485 9.99 11.485 11 13 C10.01 13 9.02 13 8 13 C3 7.65116279 3 7.65116279 3 5 C2.34 5 1.68 5 1 5 C0.67 3.35 0.34 1.7 0 0 Z " fill="#132355" transform="translate(335,707)"/>
<path d="M0 0 C1.65 0 3.3 0 5 0 C4.67 1.32 4.34 2.64 4 4 C4.66 4.33 5.32 4.66 6 5 C6 7.31 6 9.62 6 12 C5.67 11.34 5.34 10.68 5 10 C4.34 10 3.68 10 3 10 C2.01 6.7 1.02 3.4 0 0 Z " fill="#182255" transform="translate(690,330)"/>
<path d="M0 0 C0.66 0.66 1.32 1.32 2 2 C-0.51830747 5.12270126 -1.7261549 5.94523098 -5.75 6.75 C-7.35875 6.87375 -7.35875 6.87375 -9 7 C-9.33 6.34 -9.66 5.68 -10 5 C-6.7 3.35 -3.4 1.7 0 0 Z " fill="#1C2762" transform="translate(666,730)"/>
<path d="M0 0 C0.66 0 1.32 0 2 0 C1.67 6.27 1.34 12.54 1 19 C-1.15349306 14.69301387 -1.24143165 12.5437767 -1.1875 7.8125 C-1.18105469 6.56082031 -1.17460937 5.30914063 -1.16796875 4.01953125 C-1 1 -1 1 0 0 Z " fill="#9AC5F8" transform="translate(379,656)"/>
<path d="M0 0 C0.56203125 0.36867188 1.1240625 0.73734375 1.703125 1.1171875 C-2.58541194 3.00414376 -6.82448847 4.69911372 -11.296875 6.1171875 C-11.296875 5.1271875 -11.296875 4.1371875 -11.296875 3.1171875 C-9.88995893 2.38967962 -8.47081478 1.68578397 -7.046875 0.9921875 C-6.25796875 0.59773438 -5.4690625 0.20328125 -4.65625 -0.203125 C-2.296875 -0.8828125 -2.296875 -0.8828125 0 0 Z " fill="#B8E4F9" transform="translate(488.296875,372.8828125)"/>
<path d="M0 0 C0.66 0 1.32 0 2 0 C2 0.66 2 1.32 2 2 C2.83144531 1.855625 3.66289062 1.71125 4.51953125 1.5625 C5.60621094 1.376875 6.69289063 1.19125 7.8125 1 C9.43091797 0.7215625 9.43091797 0.7215625 11.08203125 0.4375 C14 0 14 0 17 0 C17 0.66 17 1.32 17 2 C15.6078125 2.2165625 15.6078125 2.2165625 14.1875 2.4375 C10.99274889 2.92100111 10.99274889 2.92100111 8 4 C6.27204648 4.06802967 4.54164635 4.08495645 2.8125 4.0625 C1.46091797 4.04896484 1.46091797 4.04896484 0.08203125 4.03515625 C-0.60503906 4.02355469 -1.29210937 4.01195312 -2 4 C-1.34 2.68 -0.68 1.36 0 0 Z " fill="#1C2A56" transform="translate(376,291)"/>
<path d="M0 0 C0.78503906 0.144375 1.57007813 0.28875 2.37890625 0.4375 C7.99610964 1.42998747 13.29497537 2.2593193 19 2 C19 2.66 19 3.32 19 4 C15.7 4.33 12.4 4.66 9 5 C9 4.67 9 4.34 9 4 C6.03 3.67 3.06 3.34 0 3 C0 2.01 0 1.02 0 0 Z " fill="#1D2756" transform="translate(629,290)"/>
<path d="M0 0 C0 3 0 3 -1 5 C-1.66 5 -2.32 5 -3 5 C-3.226875 5.61875 -3.45375 6.2375 -3.6875 6.875 C-5.37929835 9.61410209 -6.99244161 10.05024472 -10 11 C-9.09066991 9.72390677 -8.17217147 8.45434447 -7.25 7.1875 C-6.73953125 6.47980469 -6.2290625 5.77210938 -5.703125 5.04296875 C-3.97517642 2.97022309 -2.21473524 1.52624146 0 0 Z " fill="#B6E2F6" transform="translate(474,378)"/>
<path d="M0 0 C1.5078125 1.28125 1.5078125 1.28125 3 3 C2.87059529 6.6233318 2.75012072 9.06985031 0.4375 11.9375 C-0.036875 12.288125 -0.51125 12.63875 -1 13 C-2.12758089 9.61725734 -1.81750262 8.23221777 -1.0625 4.8125 C-0.86785156 3.91144531 -0.67320312 3.01039063 -0.47265625 2.08203125 C-0.23869141 1.05142578 -0.23869141 1.05142578 0 0 Z " fill="#202966" transform="translate(694,686)"/>
<path d="M0 0 C2.26273207 3.55818936 2.07331744 6.12547951 1.625 10.25 C1.51414062 11.32765625 1.40328125 12.4053125 1.2890625 13.515625 C1.19367187 14.33546875 1.09828125 15.1553125 1 16 C0.67 15.01 0.34 14.02 0 13 C-0.66 12.67 -1.32 12.34 -2 12 C-1.85962479 10.18706911 -1.71255111 8.3746557 -1.5625 6.5625 C-1.48128906 5.55316406 -1.40007813 4.54382813 -1.31640625 3.50390625 C-1 1 -1 1 0 0 Z " fill="#888FF1" transform="translate(693,678)"/>
<path d="M0 0 C-2.29284618 2.29284618 -3.72933756 2.6796154 -6.8125 3.5625 C-7.66457031 3.81128906 -8.51664062 4.06007813 -9.39453125 4.31640625 C-11.91730116 4.9783024 -14.43754969 5.51695281 -17 6 C-15.49631918 2.99263836 -13.23800706 2.59983611 -10.1875 1.3125 C-9.12917969 0.85488281 -8.07085937 0.39726562 -6.98046875 -0.07421875 C-4.01633704 -0.99492545 -2.82503443 -1.12864571 0 0 Z " fill="#243978" transform="translate(454,401)"/>
<path d="M0 0 C1.98 0.66 3.96 1.32 6 2 C3.3534665 4.6465335 0.43778736 5.59941997 -3 7 C-3.66 6.34 -4.32 5.68 -5 5 C-4.34 5 -3.68 5 -3 5 C-3 4.34 -3 3.68 -3 3 C-2.01 3 -1.02 3 0 3 C0 2.01 0 1.02 0 0 Z " fill="#162653" transform="translate(361,297)"/>
<path d="M0 0 C0.99 0.33 1.98 0.66 3 1 C2.2884375 1.6496875 2.2884375 1.6496875 1.5625 2.3125 C-0.23686957 4.02309613 -0.23686957 4.02309613 -1 7 C-1.66 7 -2.32 7 -3 7 C-3.99 10.465 -3.99 10.465 -5 14 C-5.68359375 12.328125 -5.68359375 12.328125 -6 10 C-4.78515625 7.421875 -4.78515625 7.421875 -3.0625 4.75 C-2.49660156 3.85796875 -1.93070312 2.9659375 -1.34765625 2.046875 C-0.90292969 1.37140625 -0.45820313 0.6959375 0 0 Z " fill="#BAE8F8" transform="translate(415,419)"/>
<path d="M0 0 C3.53790403 3.69172595 3.59115883 7.09390595 4 12 C1.25722422 8.80009492 -0.6302836 5.99500618 -2 2 C-1.34 1.34 -0.68 0.68 0 0 Z " fill="#141D51" transform="translate(684,314)"/>
<path d="M0 0 C0.33 0.66 0.66 1.32 1 2 C6.445 1.505 6.445 1.505 12 1 C8.71748654 2.64125673 6.38448701 3.51667436 2.875 4.25 C2.00617188 4.44078125 1.13734375 4.6315625 0.2421875 4.828125 C-0.86769531 4.91320312 -0.86769531 4.91320312 -2 5 C-2.66 4.34 -3.32 3.68 -4 3 C-2.68 2.67 -1.36 2.34 0 2 C0 1.34 0 0.68 0 0 Z " fill="#0D1945" transform="translate(372,293)"/>
<path d="M0 0 C0.33 0 0.66 0 1 0 C2.10228696 4.40914783 2.07654536 8.48382401 2 13 C-0.82781575 10.17218425 -0.98793903 8.34976801 -1.125 4.375 C-1 1 -1 1 0 0 Z " fill="#192759" transform="translate(330,688)"/>
<path d="M0 0 C0.33 0.66 0.66 1.32 1 2 C-0.27007214 2.9593419 -1.54108919 3.91743294 -2.8125 4.875 C-3.87404297 5.67550781 -3.87404297 5.67550781 -4.95703125 6.4921875 C-6.60456297 7.70814781 -8.29624211 8.86416141 -10 10 C-9.33333333 8.66666667 -8.66666667 7.33333333 -8 6 C-7.7525 5.29875 -7.505 4.5975 -7.25 3.875 C-5.40347545 1.10521317 -3.12489677 0.81519046 0 0 Z " fill="#B6E4FA" transform="translate(439,438)"/>
<path d="M0 0 C-3.2410371 2.49310546 -6.4850387 4.9059805 -10 7 C-10.99 6.67 -11.98 6.34 -13 6 C-11.78294994 4.98528829 -10.55073116 3.9887539 -9.3125 3 C-8.62800781 2.443125 -7.94351562 1.88625 -7.23828125 1.3125 C-4.61216944 -0.22741897 -2.99396644 -0.25168194 0 0 Z " fill="#C2F3FA" transform="translate(364,303)"/>
<path d="M0 0 C-1.36125 0.6496875 -1.36125 0.6496875 -2.75 1.3125 C-5.93777831 2.83388114 -5.93777831 2.83388114 -8.1875 4.75 C-8.785625 5.1625 -9.38375 5.575 -10 6 C-10.99 5.67 -11.98 5.34 -13 5 C-4.9 -1.75 -4.9 -1.75 0 0 Z " fill="#0C1853" transform="translate(561,440)"/>
<path d="M0 0 C0.99 0.66 1.98 1.32 3 2 C-0.88309282 5.64775386 -3.71201818 6.58525633 -9 7 C-6.47043472 3.9083091 -3.77545388 3.09068668 0 2 C0 1.34 0 0.68 0 0 Z " fill="#223A75" transform="translate(426,408)"/>
<path d="M0 0 C0.99 0 1.98 0 3 0 C1.4169423 4.2742558 -1.50568404 6.26531794 -5 9 C-5 4.66314164 -2.91985986 3.0556673 0 0 Z " fill="#90AFF5" transform="translate(438,684)"/>
<path d="M0 0 C-3.79692186 2.82561627 -6.18569279 4.56638908 -11 4 C-7.64918101 0.31409911 -4.96535219 -1.77334007 0 0 Z " fill="#BDEAFB" transform="translate(432,412)"/>
<path d="M0 0 C4.7632312 4.51253482 4.7632312 4.51253482 6.0625 7.1875 C7.27341861 9.52860931 8.60177814 10.04071126 11 11 C10.34 11.66 9.68 12.32 9 13 C8.67 12.01 8.34 11.02 8 10 C7.34 10 6.68 10 6 10 C4.4921875 8.3203125 4.4921875 8.3203125 2.875 6.125 C2.33617187 5.40570313 1.79734375 4.68640625 1.2421875 3.9453125 C0 2 0 2 0 0 Z " fill="#AFCBEC" transform="translate(579,399)"/>
<path d="M0 0 C-4.75 4 -4.75 4 -7 4 C-7 4.66 -7 5.32 -7 6 C-8.32 6.33 -9.64 6.66 -11 7 C-7.69329073 0.26411076 -7.69329073 0.26411076 -4.375 -1 C-2 -1 -2 -1 0 0 Z " fill="#25407C" transform="translate(386,338)"/>
<path d="M0 0 C1 2 1 2 0.22265625 4.6015625 C-0.16019531 5.59929687 -0.54304688 6.59703125 -0.9375 7.625 C-1.50791016 9.12933594 -1.50791016 9.12933594 -2.08984375 10.6640625 C-2.39019531 11.43492187 -2.69054687 12.20578125 -3 13 C-5 10 -5 10 -5 8 C-4.34 8 -3.68 8 -3 8 C-3.33 6.68 -3.66 5.36 -4 4 C-3.01 3.67 -2.02 3.34 -1 3 C-0.67 2.01 -0.34 1.02 0 0 Z " fill="#1B2A58" transform="translate(333,328)"/>
<path d="M0 0 C0.33 0 0.66 0 1 0 C1.33 2.97 1.66 5.94 2 9 C1.67 9 1.34 9 1 9 C0.67 10.98 0.34 12.96 0 15 C-2.47717167 11.28424249 -2.30345742 9.40013262 -2 5 C-1 2.0625 -1 2.0625 0 0 Z " fill="#213A74" transform="translate(405,433)"/>
<path d="M0 0 C1.98 0 3.96 0 6 0 C6.33 0.99 6.66 1.98 7 3 C2.71 3 -1.58 3 -6 3 C-6 2.67 -6 2.34 -6 2 C-4.02 1.67 -2.04 1.34 0 1 C0 0.67 0 0.34 0 0 Z " fill="#7489D8" transform="translate(513,633)"/>
<path d="M0 0 C-0.125 1.875 -0.125 1.875 -1 4 C-4.0625 5.25 -4.0625 5.25 -7 6 C-7 5.01 -7 4.02 -7 3 C-2.77777778 0 -2.77777778 0 0 0 Z " fill="#253C80" transform="translate(501,549)"/>
<path d="M0 0 C4.8 2.46153846 4.8 2.46153846 5.8125 5.1875 C5.874375 5.785625 5.93625 6.38375 6 7 C4.02 7.99 4.02 7.99 2 9 C2.04125 8.2575 2.0825 7.515 2.125 6.75 C1.99601866 3.91241048 1.42948778 2.41226062 0 0 Z " fill="#1F3673" transform="translate(474,449)"/>
<path d="M0 0 C0.66 0.33 1.32 0.66 2 1 C2 3.31 2 5.62 2 8 C1.01 8 0.02 8 -1 8 C-0.67 5.36 -0.34 2.72 0 0 Z " fill="#A8DDF7" transform="translate(408,432)"/>
<path d="M0 0 C1.66519519 0.34060811 3.33157466 0.67558396 5 1 C4.01 2.485 4.01 2.485 3 4 C3 3.34 3 2.68 3 2 C1.3603125 2.061875 1.3603125 2.061875 -0.3125 2.125 C-4 2 -4 2 -7 0 C-3.7407369 -1.08642103 -3.1336898 -0.92167347 0 0 Z " fill="#203066" transform="translate(385,740)"/>
<path d="M0 0 C0.99 0.66 1.98 1.32 3 2 C0.69 3.32 -1.62 4.64 -4 6 C-4 5.34 -4 4.68 -4 4 C-4.66 3.67 -5.32 3.34 -6 3 C-4.02 2.01 -2.04 1.02 0 0 Z " fill="#8890F2" transform="translate(632,693)"/>
<path d="M0 0 C0.99 0 1.98 0 3 0 C3.33 2.97 3.66 5.94 4 9 C3.01 8.67 2.02 8.34 1 8 C0.67 5.36 0.34 2.72 0 0 Z " fill="#344387" transform="translate(593,457)"/>
<path d="M0 0 C2.4294516 3.6441774 2.16179575 5.71241272 2 10 C1.01 10.495 1.01 10.495 0 11 C-1.28571429 3.57142857 -1.28571429 3.57142857 0 0 Z " fill="#B3E4F0" transform="translate(331,339)"/>
<path d="M0 0 C0.66 0.33 1.32 0.66 2 1 C0.73461631 1.84158536 -0.53753779 2.67299748 -1.8125 3.5 C-2.87404297 4.19609375 -2.87404297 4.19609375 -3.95703125 4.90625 C-6 6 -6 6 -9 6 C-7.49050507 2.98101014 -4.98344918 2.40039451 -2 1 C-1.34 0.67 -0.68 0.34 0 0 Z " fill="#C3EBF3" transform="translate(387,332)"/>
<path d="M0 0 C-3.18762365 2.12508244 -5.26512223 2.5020163 -9 3 C-9 2.01 -9 1.02 -9 0 C-5.62182575 -0.84454356 -3.32534757 -1.10844919 0 0 Z " fill="#1B2663" transform="translate(650,739)"/>
<path d="M0 0 C2.31 0.66 4.62 1.32 7 2 C7 2.66 7 3.32 7 4 C7.66 4.33 8.32 4.66 9 5 C8.01 5.33 7.02 5.66 6 6 C5.67 5.34 5.34 4.68 5 4 C2.47266765 3.34444881 2.47266765 3.34444881 0 3 C0 2.01 0 1.02 0 0 Z " fill="#152458" transform="translate(368,735)"/>
<path d="M0 0 C3.465 1.485 3.465 1.485 7 3 C7 3.66 7 4.32 7 5 C1.25 4.125 1.25 4.125 -1 3 C-0.67 2.01 -0.34 1.02 0 0 Z " fill="#17265D" transform="translate(360,731)"/>
<path d="M0 0 C0.99 0.33 1.98 0.66 3 1 C1.25 6.75 1.25 6.75 -1 9 C-2.0326802 6.21176345 -2.04509293 5.1322726 -1.0625 2.25 C-0.711875 1.5075 -0.36125 0.765 0 0 Z " fill="#1F2A67" transform="translate(691,699)"/>
<path d="M0 0 C0.66 0.33 1.32 0.66 2 1 C1.54625 1.598125 1.0925 2.19625 0.625 2.8125 C-0.63295913 4.50590652 -1.82984724 6.24477086 -3 8 C-3.66 8 -4.32 8 -5 8 C-3.8141763 4.62496331 -2.72426311 2.35277269 0 0 Z " fill="#0E225A" transform="translate(433,444)"/>
<path d="M0 0 C0.33 0.66 0.66 1.32 1 2 C0.06833174 4.03273074 -0.9349985 6.03384339 -2 8 C-2.33 8.66 -2.66 9.32 -3 10 C-3.66 10 -4.32 10 -5 10 C-4.34 8.02 -3.68 6.04 -3 4 C-2.34 4 -1.68 4 -1 4 C-0.67 2.68 -0.34 1.36 0 0 Z " fill="#A4DDFC" transform="translate(415,422)"/>
<path d="M0 0 C0.33 0.66 0.66 1.32 1 2 C-0.25 4.625 -0.25 4.625 -2 7 C-2.99 7 -3.98 7 -5 7 C-1.125 1.125 -1.125 1.125 0 0 Z " fill="#B9E7F9" transform="translate(463,390)"/>
<path d="M0 0 C0.598125 0.20625 1.19625 0.4125 1.8125 0.625 C0.1625 1.945 -1.4875 3.265 -3.1875 4.625 C-3.8475 4.295 -4.5075 3.965 -5.1875 3.625 C-5.1875 2.965 -5.1875 2.305 -5.1875 1.625 C-2.1875 -0.375 -2.1875 -0.375 0 0 Z " fill="#1B2A59" transform="translate(354.1875,304.375)"/>
<path d="M0 0 C0.66 0.33 1.32 0.66 2 1 C0.9024777 3.99324263 0.32317108 4.84610901 -2.625 6.25 C-3.40875 6.4975 -4.1925 6.745 -5 7 C-3.70700306 4.11562221 -2.34058637 2.12780579 0 0 Z " fill="#131D55" transform="translate(680,719)"/>
<path d="M0 0 C0 0.66 0 1.32 0 2 C-2.64 2.33 -5.28 2.66 -8 3 C-8 2.34 -8 1.68 -8 1 C-5.29120665 -0.35439668 -2.99066732 -0.06501451 0 0 Z " fill="#9ACCF8" transform="translate(404,546)"/>
</svg>
